HIERARCHY
ROOT Hips
{
    OFFSET 0.000000 0.000000 0.000000
    CHANNELS 6 Xposition Yposition Zposition Zrotation Yrotation Xrotation
    JOINT Chest
    {
        OFFSET 0.000000 1.634758 -0.000000
        CHANNELS 3 Zrotation Yrotation Xrotation
        JOINT Chest2
        {
            OFFSET 0.000000 2.197341 0.000000
            CHANNELS 3 Zrotation Yrotation Xrotation
            JOINT Neck
            {
                OFFSET 0.000000 0.961544 0.000000
                CHANNELS 3 Zrotation Yrotation Xrotation
                JOINT Head
                {
                    OFFSET 0.000000 0.632542 -0.032565
                    CHANNELS 3 Zrotation Yrotation Xrotation
                    End Site
                    {
                        OFFSET -0.000001 0.439502 2.922845
                    }
                }
            }
            JOINT LeftCollar
            {
                OFFSET 0.167536 0.778237 -0.168280
                CHANNELS 3 Zrotation Yrotation Xrotation
                JOINT LeftShoulder
                {
                    OFFSET 0.831514 -0.002900 0.006458
                    CHANNELS 3 Zrotation Yrotation Xrotation
                    JOINT LeftElbow
                    {
                        OFFSET 2.272872 -0.026639 0.059314
                        CHANNELS 3 Zrotation Yrotation Xrotation
                        JOINT LeftWrist
                        {
                            OFFSET 2.081982 -0.024402 0.054333
                            CHANNELS 3 Zrotation Yrotation Xrotation
                            JOINT LeftHandThumb1
                            {
                                OFFSET 0.218903 -0.128645 0.283837
                                CHANNELS 3 Zrotation Yrotation Xrotation
                                JOINT LeftHandThumb2
                                {
                                    OFFSET 0.137157 -0.025101 0.077902
                                    CHANNELS 3 Zrotation Yrotation Xrotation
                                    JOINT LeftHandThumb3
                                    {
                                        OFFSET 0.163592 -0.061323 0.054922
                                        CHANNELS 3 Zrotation Yrotation Xrotation
                                        End Site
                                        {
                                            OFFSET 0.242814 -0.064473 0.093387
                                        }
                                    }
                                }
                            }
                            JOINT LeftHandFore1
                            {
                                OFFSET 0.767340 -0.016076 0.196678
                                CHANNELS 3 Zrotation Yrotation Xrotation
                                JOINT LeftHandFore2
                                {
                                    OFFSET 0.194910 -0.087741 0.036151
                                    CHANNELS 3 Zrotation Yrotation Xrotation
                                    JOINT LeftHandFore3
                                    {
                                        OFFSET 0.092875 -0.089218 0.013319
                                        CHANNELS 3 Zrotation Yrotation Xrotation
                                        End Site
                                        {
                                            OFFSET 0.097281 -0.166262 0.016137
                                        }
                                    }
                                }
                            }
                            JOINT LeftHandMiddle1
                            {
                                OFFSET 0.709887 -0.008320 0.018526
                                CHANNELS 3 Zrotation Yrotation Xrotation
                                JOINT LeftHandMiddle2
                                {
                                    OFFSET 0.224654 -0.096229 0.018290
                                    CHANNELS 3 Zrotation Yrotation Xrotation
                                    JOINT LeftHandMiddle3
                                    {
                                        OFFSET 0.112279 -0.093619 0.003456
                                        CHANNELS 3 Zrotation Yrotation Xrotation
                                        End Site
                                        {
                                            OFFSET 0.124215 -0.200489 0.002258
                                        }
                                    }
                                }
                            }
                            JOINT LeftHandRing1
                            {
                                OFFSET 0.743817 -0.005823 -0.153668
                                CHANNELS 3 Zrotation Yrotation Xrotation
                                JOINT LeftHandRing2
                                {
                                    OFFSET 0.318812 -0.149696 -0.026139
                                    CHANNELS 3 Zrotation Yrotation Xrotation
                                    JOINT LeftHandRing3
                                    {
                                        OFFSET 0.098079 -0.093764 -0.013936
                                        CHANNELS 3 Zrotation Yrotation Xrotation
                                        End Site
                                        {
                                            OFFSET 0.052405 -0.107176 -0.013671
                                        }
                                    }
                                }
                            }
                            JOINT LeftHandLittle1
                            {
                                OFFSET 0.689408 -0.053302 -0.308304
                                CHANNELS 3 Zrotation Yrotation Xrotation
                                JOINT LeftHandLittle2
                                {
                                    OFFSET 0.175349 -0.075526 -0.040032
                                    CHANNELS 3 Zrotation Yrotation Xrotation
                                    JOINT LeftHandLittle3
                                    {
                                        OFFSET 0.079813 -0.085301 -0.029154
                                        CHANNELS 3 Zrotation Yrotation Xrotation
                                        End Site
                                        {
                                            OFFSET 0.098803 -0.155258 -0.049208
                                        }
                                    }
                                }
                            }
                        }
                    }
                }
            }
            JOINT RightCollar
            {
                OFFSET -0.167536 0.778237 -0.168280
                CHANNELS 3 Zrotation Yrotation Xrotation
                JOINT RightShoulder
                {
                    OFFSET -0.831514 -0.002900 0.006457
                    CHANNELS 3 Zrotation Yrotation Xrotation
                    JOINT RightElbow
                    {
                        OFFSET -2.272872 -0.026639 0.059313
                        CHANNELS 3 Zrotation Yrotation Xrotation
                        JOINT RightWrist
                        {
                            OFFSET -2.081982 -0.024402 0.054331
                            CHANNELS 3 Zrotation Yrotation Xrotation
                            JOINT RightHandThumb1
                            {
                                OFFSET -0.218911 -0.128571 0.283837
                                CHANNELS 3 Zrotation Yrotation Xrotation
                                JOINT RightHandThumb2
                                {
                                    OFFSET -0.137157 -0.025101 0.077902
                                    CHANNELS 3 Zrotation Yrotation Xrotation
                                    JOINT RightHandThumb3
                                    {
                                        OFFSET -0.167455 -0.054447 0.050337
                                        CHANNELS 3 Zrotation Yrotation Xrotation
                                        End Site
                                        {
                                            OFFSET -0.236691 -0.075431 0.100619
                                        }
                                    }
                                }
                            }
                            JOINT RightHandFore1
                            {
                                OFFSET -0.767344 -0.015991 0.196679
                                CHANNELS 3 Zrotation Yrotation Xrotation
                                JOINT RightHandFore2
                                {
                                    OFFSET -0.194933 -0.087698 0.036149
                                    CHANNELS 3 Zrotation Yrotation Xrotation
                                    JOINT RightHandFore3
                                    {
                                        OFFSET -0.090640 -0.087944 0.028502
                                        CHANNELS 3 Zrotation Yrotation Xrotation
                                        End Site
                                        {
                                            OFFSET -0.093835 -0.164335 0.039444
                                        }
                                    }
                                }
                            }
                            JOINT RightHandMiddle1
                            {
                                OFFSET -0.709887 -0.008302 0.018525
                                CHANNELS 3 Zrotation Yrotation Xrotation
                                JOINT RightHandMiddle2
                                {
                                    OFFSET -0.224640 -0.096249 0.018292
                                    CHANNELS 3 Zrotation Yrotation Xrotation
                                    JOINT RightHandMiddle3
                                    {
                                        OFFSET -0.111334 -0.092707 0.019863
                                        CHANNELS 3 Zrotation Yrotation Xrotation
                                        End Site
                                        {
                                            OFFSET -0.122378 -0.198673 0.034395
                                        }
                                    }
                                }
                            }
                            JOINT RightHandRing1
                            {
                                OFFSET -0.743819 -0.005785 -0.153669
                                CHANNELS 3 Zrotation Yrotation Xrotation
                                JOINT RightHandRing2
                                {
                                    OFFSET -0.318823 -0.149673 -0.026138
                                    CHANNELS 3 Zrotation Yrotation Xrotation
                                    JOINT RightHandRing3
                                    {
                                        OFFSET -0.098490 -0.094126 -0.006716
                                        CHANNELS 3 Zrotation Yrotation Xrotation
                                        End Site
                                        {
                                            OFFSET -0.053032 -0.107703 -0.002821
                                        }
                                    }
                                }
                            }
                            JOINT RightHandLittle1
                            {
                                OFFSET -0.689403 -0.053298 -0.308303
                                CHANNELS 3 Zrotation Yrotation Xrotation
                                JOINT RightHandLittle2
                                {
                                    OFFSET -0.175354 -0.075522 -0.040033
                                    CHANNELS 3 Zrotation Yrotation Xrotation
                                    JOINT RightHandLittle3
                                    {
                                        OFFSET -0.081270 -0.086376 -0.020735
                                        CHANNELS 3 Zrotation Yrotation Xrotation
                                        End Site
                                        {
                                            OFFSET -0.102810 -0.158268 -0.025883
                                        }
                                    }
                                }
                            }
                        }
                    }
                }
            }
        }
    }
    JOINT LeftHip
    {
        OFFSET 0.685143 0.673822 -0.044491
        CHANNELS 3 Zrotation Yrotation Xrotation
        JOINT LeftKnee
        {
            OFFSET 0.085364 -3.750208 0.017676
            CHANNELS 3 Zrotation Yrotation Xrotation
            JOINT LeftAnkle
            {
                OFFSET 0.094583 -4.155206 0.019585
                CHANNELS 3 Zrotation Yrotation Xrotation
                JOINT LeftToe
                {
                    OFFSET -0.000000 -0.395925 0.621478
                    CHANNELS 3 Zrotation Yrotation Xrotation
                    End Site
                    {
                        OFFSET -0.000000 -0.077878 0.321152
                    }
                }
            }
        }
    }
    JOINT RightHip
    {
        OFFSET -0.685143 0.673822 -0.044492
        CHANNELS 3 Zrotation Yrotation Xrotation
        JOINT RightKnee
        {
            OFFSET -0.085364 -3.750208 0.017677
            CHANNELS 3 Zrotation Yrotation Xrotation
            JOINT RightAnkle
            {
                OFFSET -0.094583 -4.155206 0.019585
                CHANNELS 3 Zrotation Yrotation Xrotation
                JOINT RightToe
                {
                    OFFSET -0.000000 -0.395925 0.621478
                    CHANNELS 3 Zrotation Yrotation Xrotation
                    End Site
                    {
                        OFFSET -0.000000 -0.077878 0.321152
                    }
                }
            }
        }
    }
}
MOTION
Frames: 4
Frame Time: 0.033333
-0.972018 8.351689 0.112362 166.915039 -0.025742 -179.075653 1.908424 0.016903 -3.437686 0.000177 -0.002625 -3.645261 -0.824389 1.490276 11.912748 -0.151964 2.949291 24.836979 -12.463199 1.603696 0.005027 -48.274952 15.313564 -0.309968 0.048513 -21.447720 -0.263505 -3.692498 11.710668 7.568155 -0.000007 0.000003 0.000002 0.000005 0.000002 -0.000006 -0.000005 -0.000001 0.000002 0.000001 -0.000001 0.000000 -0.000003 0.000001 0.000000 0.000002 -0.000000 -0.000000 0.000002 0.000000 0.000000 -0.000001 0.000000 0.000000 -0.000003 -0.000000 -0.000000 -0.000001 0.000000 0.000001 -0.000006 0.000000 0.000001 0.000002 -0.000001 -0.000001 -0.000003 -0.000000 0.000000 0.000000 -0.000000 0.000000 -0.000005 0.000000 0.000001 14.993562 -1.613455 0.006312 61.187580 -5.084249 -0.959339 0.000000 0.000000 0.000000 -4.493627 0.087903 6.680622 -0.000003 0.000001 0.000002 -0.000000 0.000004 -0.000001 0.000002 -0.000002 -0.000000 -0.000002 -0.000000 -0.000000 0.000004 0.000001 0.000000 -0.000001 -0.000001 0.000001 0.000001 0.000001 -0.000000 -0.000002 -0.000001 0.000000 0.000002 0.000001 0.000000 -0.000001 -0.000001 -0.000000 -0.000005 0.000000 -0.000001 0.000003 0.000000 -0.000001 0.000003 0.000000 -0.000001 -0.000000 -0.000000 0.000000 0.000000 0.000000 -0.000001 -20.383446 -1.010786 -13.665694 0.094067 0.486295 21.893328 3.003439 5.314102 -16.547663 0.000000 0.000000 0.000000 -13.937608 -27.851854 -23.971210 -0.305027 -0.838192 39.995502 -7.549693 -10.584893 -21.614231 -0.000002 -0.000003 0.000007
-0.972018 8.351689 0.112362 166.915024 -0.025742 -179.075653 1.908564 0.016947 -3.437685 0.000323 -0.002642 -3.645260 -0.824384 1.490275 11.912691 -0.151959 2.949241 24.836887 -12.463217 1.603687 0.005019 -48.274971 15.313675 -0.309941 0.048510 -21.448202 -0.263511 -3.692486 11.710664 7.568381 0.000003 0.000002 0.000003 0.000005 0.000001 -0.000003 0.000005 -0.000000 -0.000002 -0.000002 -0.000001 0.000002 0.000008 0.000001 0.000000 -0.000002 -0.000001 -0.000000 0.000005 0.000001 0.000003 -0.000000 0.000000 -0.000000 0.000001 -0.000000 -0.000000 -0.000000 0.000000 0.000001 -0.000004 -0.000000 -0.000000 0.000007 -0.000001 -0.000000 -0.000002 -0.000001 0.000002 -0.000002 -0.000001 -0.000000 0.000001 0.000002 0.000001 14.993424 -1.613602 0.006317 61.187508 -5.084836 -0.959554 -0.000004 -0.000000 0.000000 -4.493630 0.088020 6.681360 0.000000 0.000006 0.000000 -0.000002 0.000003 0.000000 -0.000002 -0.000003 -0.000002 -0.000001 -0.000002 0.000001 0.000004 0.000001 0.000001 -0.000001 -0.000002 0.000002 -0.000000 -0.000002 -0.000000 0.000000 -0.000001 0.000000 -0.000000 0.000001 0.000001 -0.000002 -0.000002 0.000001 -0.000001 0.000000 0.000000 -0.000003 -0.000000 0.000000 0.000002 -0.000004 0.000001 -0.000003 0.000001 -0.000000 0.000002 0.000000 0.000001 -20.383375 -1.010745 -13.663891 0.094039 0.486226 21.890047 3.003145 5.314158 -16.546227 0.000000 0.000001 -0.000003 -13.937520 -27.851841 -23.971233 -0.305026 -0.838192 39.995552 -7.550056 -10.584963 -21.614426 -0.000002 -0.000003 0.000002
-0.972018 8.351689 0.112362 166.915024 -0.025742 -179.075653 1.908993 0.017082 -3.437680 0.000761 -0.002699 -3.645253 -0.824406 1.490289 11.912502 -0.151958 2.949105 24.836597 -12.463218 1.603662 0.005002 -48.275116 15.313955 -0.309867 0.048520 -21.449530 -0.263531 -3.692474 11.710652 7.569054 -0.000006 -0.000003 -0.000004 0.000004 -0.000000 -0.000007 0.000001 -0.000001 0.000001 -0.000006 0.000000 -0.000003 0.000011 0.000001 0.000001 -0.000001 -0.000000 -0.000000 0.000004 0.000001 -0.000003 -0.000001 0.000000 0.000000 -0.000003 -0.000000 -0.000000 -0.000006 0.000004 -0.000001 -0.000005 -0.000000 -0.000000 0.000002 -0.000000 -0.000001 -0.000015 0.000006 0.000001 -0.000002 0.000001 0.000000 -0.000010 -0.000001 0.000001 14.992887 -1.614018 0.006342 61.187443 -5.086587 -0.960173 0.000002 -0.000000 0.000000 -4.493647 0.088368 6.683565 -0.000006 0.000000 -0.000003 -0.000002 0.000002 0.000000 0.000002 -0.000002 0.000001 -0.000009 -0.000003 -0.000000 0.000002 0.000001 -0.000001 -0.000002 -0.000002 0.000001 -0.000006 -0.000004 -0.000000 -0.000005 -0.000001 0.000000 0.000006 0.000001 0.000001 -0.000007 -0.000004 0.000000 0.000003 0.000001 -0.000001 -0.000005 -0.000000 0.000000 -0.000001 -0.000004 0.000000 0.000003 -0.000001 0.000001 -0.000002 0.000001 0.000000 -20.383127 -1.010628 -13.658597 0.093957 0.486022 21.880428 3.002251 5.314333 -16.542027 -0.000001 -0.000002 0.000001 -13.937243 -27.851810 -23.971279 -0.305028 -0.838190 39.995644 -7.551156 -10.585176 -21.614990 0.000002 -0.000005 0.000008
-0.972018 8.351689 0.112362 166.915024 -0.025742 -179.075653 1.909711 0.017308 -3.437675 0.001477 -0.002789 -3.645241 -0.824424 1.490304 11.912200 -0.151941 2.948873 24.836109 -12.463243 1.603619 0.004968 -48.275322 15.314316 -0.309737 0.048528 -21.451498 -0.263557 -3.692461 11.710637 7.570172 0.000013 -0.000006 0.000004 0.000002 -0.000001 -0.000007 -0.000005 -0.000000 -0.000001 0.000005 -0.000002 0.000003 0.000007 0.000002 0.000001 -0.000007 -0.000001 -0.000000 0.000002 0.000000 0.000003 0.000007 0.000001 0.000000 -0.000003 -0.000001 -0.000001 -0.000000 0.000005 0.000005 -0.000004 -0.000001 0.000000 -0.000002 0.000000 -0.000001 -0.000011 0.000007 0.000006 0.000005 0.000000 -0.000001 -0.000006 0.000000 0.000003 14.991996 -1.614713 0.006376 61.187347 -5.089494 -0.961226 -0.000002 -0.000000 0.000000 -4.493674 0.088944 6.687215 0.000001 -0.000006 0.000004 -0.000002 0.000002 -0.000003 0.000002 -0.000002 -0.000000 -0.000005 -0.000005 -0.000001 0.000003 0.000002 0.000000 -0.000000 -0.000003 0.000000 0.000001 -0.000004 -0.000001 -0.000004 -0.000001 0.000000 0.000003 0.000001 0.000001 -0.000005 -0.000002 -0.000003 -0.000003 0.000000 -0.000001 -0.000000 -0.000000 0.000000 0.000003 -0.000002 -0.000004 0.000001 0.000000 0.000000 0.000002 0.000001 -0.000001 -20.382727 -1.010435 -13.649826 0.093823 0.485686 21.864502 3.000777 5.314621 -16.535069 0.000000 0.000002 0.000001 -13.936789 -27.851759 -23.971304 -0.305028 -0.838193 39.995697 -7.552979 -10.585516 -21.615885 0.000000 0.000002 0.000003
